<?xml version="1.0" encoding="UTF-8"?>
<svg width="98px" height="21px" viewBox="0 0 98 21" version="1.1" xmlns="http://www.w3.org/2000/svg" xmlns:xlink="http://www.w3.org/1999/xlink">
    <!-- Generator: Sketch 59.1 (86144) - https://sketch.com -->
    <title>cc--dark</title>
    <desc>Created with Sketch.</desc>
    <g id="cc--dark" stroke="none" stroke-width="1" fill="none" fill-rule="evenodd">
        <g id="Logo-CometChat-Copy" transform="translate(0.000000, -67.000000)">
            <rect id="Rectangle" x="0" y="67" width="142" height="21"></rect>
        </g>
        <g id="Group-7-Copy" transform="translate(0.000000, 2.000000)" fill="#010204" fill-rule="nonzero">
            <g id="Logo-CometChat">
                <path d="M7.79000858,7.51905496 L9.59877044,7.51905496 C9.5302564,6.88383313 9.36582516,6.3349269 9.10547176,5.87231978 C8.84511836,5.40971259 8.51283022,5.02651391 8.10859729,4.72271219 C7.70436442,4.41891047 7.23847589,4.19451484 6.71091767,4.04951856 C6.18335948,3.90452229 5.61812705,3.83202524 5.0152034,3.83202524 C4.17933199,3.83202524 3.44624265,3.98047158 2.81591339,4.27736871 C2.18558412,4.57426585 1.6614595,4.98163022 1.2435238,5.49947405 C0.825588089,6.01731792 0.513853836,6.62491221 0.308311685,7.32227526 C0.102769534,8.01963831 0,8.76877448 0,9.56970629 C0,10.3706381 0.106195185,11.1059653 0.318588741,11.77571 C0.530982297,12.4454547 0.8461422,13.0219788 1.26407791,13.5052998 C1.68201362,13.9886207 2.20271259,14.3614626 2.82619044,14.6238368 C3.4496683,14.886211 4.16562939,15.0173962 4.97409518,15.0173962 C6.33067338,15.0173962 7.40290217,14.6583632 8.19081375,13.9402865 C8.97872534,13.2222097 9.46859347,12.2003465 9.66043276,10.8746662 L7.87222499,10.8746662 C7.76260251,11.7032164 7.46457087,12.3453331 6.97812113,12.8010357 C6.49167137,13.2567382 5.81681811,13.4845861 4.95354107,13.4845861 C4.40542867,13.4845861 3.93268881,13.3741144 3.53530732,13.1531677 C3.13792583,12.932221 2.81591462,12.6387806 2.56926404,12.2728376 C2.32261346,11.9068946 2.14105395,11.4891736 2.02458006,11.0196618 C1.90810618,10.55015 1.84987011,10.0668363 1.84987011,9.56970629 C1.84987011,9.03114868 1.90468053,8.50986039 2.01430301,8.00582572 C2.12392549,7.50179106 2.30548499,7.05645204 2.55898698,6.66979527 C2.81248897,6.28313857 3.15162843,5.97243689 3.57641554,5.73768102 C4.00120265,5.50292516 4.52875293,5.38554896 5.15908219,5.38554896 C5.89903394,5.38554896 6.48824593,5.57196997 6.92673585,5.94481753 C7.36522577,6.31766509 7.6529805,6.84240565 7.79000858,7.51905496 L7.79000858,7.51905496 L7.79000858,7.51905496 L7.79000858,7.51905496 Z M12.5662704,9.4454244 C12.5662704,8.79639342 12.6519117,8.21986927 12.8231968,7.7158346 C12.9944819,7.21179993 13.2308519,6.78717438 13.5323137,6.44194516 C13.8337755,6.09671593 14.1866176,5.83434566 14.5908505,5.65482641 C14.9950834,5.47530723 15.4232898,5.38554896 15.8754825,5.38554896 C16.3276752,5.38554896 16.7558816,5.47530723 17.1601145,5.65482641 C17.5643474,5.83434566 17.9171895,6.09671593 18.2186513,6.44194516 C18.5201132,6.78717438 18.7564831,7.21179993 18.9277682,7.7158346 C19.0990533,8.21986927 19.1846946,8.79639342 19.1846946,9.4454244 C19.1846946,10.0944553 19.0990533,10.6709795 18.9277682,11.1750141 C18.7564831,11.6790488 18.5201132,12.1002221 18.2186513,12.4385468 C17.9171895,12.7768715 17.5643474,13.0357895 17.1601145,13.2153086 C16.7558816,13.3948279 16.3276752,13.4845861 15.8754825,13.4845861 C15.4232898,13.4845861 14.9950834,13.3948279 14.5908505,13.2153086 C14.1866176,13.0357895 13.8337755,12.7768715 13.5323137,12.4385468 C13.2308519,12.1002221 12.9944819,11.6790488 12.8231968,11.1750141 C12.6519117,10.6709795 12.5662704,10.0944553 12.5662704,9.4454244 L12.5662704,9.4454244 L12.5662704,9.4454244 L12.5662704,9.4454244 Z M10.7164003,9.4454244 C10.7164003,10.232547 10.8260212,10.964422 11.0452661,11.6410713 C11.2645111,12.3177205 11.5933736,12.9080537 12.0318635,13.4120883 C12.4703534,13.916123 13.0116063,14.3096784 13.6556384,14.5927664 C14.2996704,14.8758544 15.0396111,15.0173962 15.8754825,15.0173962 C16.7250567,15.0173962 17.468423,14.8758544 18.1056037,14.5927664 C18.7427844,14.3096784 19.2806116,13.916123 19.7191015,13.4120883 C20.1575914,12.9080537 20.4864539,12.3177205 20.7056989,11.6410713 C20.9249438,10.964422 21.0345647,10.232547 21.0345647,9.4454244 C21.0345647,8.65830172 20.9249438,7.92297456 20.7056989,7.23942064 C20.4864539,6.5558668 20.1575914,5.96208144 19.7191015,5.45804677 C19.2806116,4.95401209 18.7427844,4.55700444 18.1056037,4.26701189 C17.468423,3.97701934 16.7250567,3.83202524 15.8754825,3.83202524 C15.0396111,3.83202524 14.2996704,3.97701934 13.6556384,4.26701189 C13.0116063,4.55700444 12.4703534,4.95401209 12.0318635,5.45804677 C11.5933736,5.96208144 11.2645111,6.5558668 11.0452661,7.23942064 C10.8260212,7.92297456 10.7164003,8.65830172 10.7164003,9.4454244 L10.7164003,9.4454244 L10.7164003,9.4454244 L10.7164003,9.4454244 Z M22.7688179,4.08058904 L22.7688179,14.7895461 L24.5159174,14.7895461 L24.5159174,8.11975081 C24.5159174,7.91261322 24.5673022,7.65369521 24.6700733,7.34298893 C24.7728444,7.03228258 24.9372757,6.7319377 25.163372,6.44194516 C25.3894684,6.15195262 25.6840744,5.90339127 26.0471988,5.69625375 C26.4103233,5.48911623 26.845381,5.38554896 27.352385,5.38554896 C27.7497664,5.38554896 28.0752033,5.44423709 28.3287053,5.56161499 C28.5822073,5.67899295 28.7843207,5.8447005 28.9350516,6.05874262 C29.0857826,6.27278474 29.1919777,6.52479829 29.2536403,6.81479083 C29.315303,7.10478337 29.3461338,7.42238952 29.3461338,7.76761874 L29.3461338,14.7895461 L31.0932334,14.7895461 L31.0932334,8.11975081 C31.0932334,7.29120066 31.3398803,6.6283705 31.8331815,6.13124037 C32.3264826,5.6341103 33.0047615,5.38554896 33.8680386,5.38554896 C34.2928257,5.38554896 34.6388165,5.44768929 34.9060212,5.57197186 C35.173226,5.69625436 35.3821908,5.86541417 35.5329217,6.07945629 C35.6836526,6.29349841 35.7864221,6.54551196 35.8412333,6.8355045 C35.8960446,7.12549704 35.9234498,7.43619866 35.9234498,7.76761874 L35.9234498,14.7895461 L37.6705494,14.7895461 L37.6705494,6.93907272 C37.6705494,6.38670597 37.5849081,5.91374902 37.413623,5.52018772 C37.2423378,5.12662641 37.0025422,4.80556803 36.694229,4.55700299 C36.3859158,4.30843795 36.0159455,4.1254692 35.584307,4.00809127 C35.1526684,3.89071333 34.6696516,3.83202524 34.135242,3.83202524 C33.4363987,3.83202524 32.795802,3.9908283 32.2134325,4.30843919 C31.6310631,4.62605008 31.1617489,5.07484132 30.8054758,5.65482641 C30.5862309,4.99198633 30.2094092,4.52248162 29.6749997,4.24629824 C29.1405901,3.97011486 28.5445268,3.83202524 27.8867919,3.83202524 C26.3931856,3.83202524 25.2490181,4.43961956 24.4542551,5.65482641 L24.4131469,5.65482641 L24.4131469,4.08058904 L22.7688179,4.08058904 L22.7688179,4.08058904 L22.7688179,4.08058904 Z M47.3592441,8.40974187 L41.2546727,8.40974187 C41.2820783,7.99546682 41.3711452,7.60536361 41.5218761,7.23942064 C41.672607,6.87347768 41.8781461,6.55241933 42.1384995,6.27623593 C42.3988529,6.00005259 42.7105872,5.78256138 43.0737116,5.62375594 C43.4368361,5.46495049 43.8444886,5.38554896 44.2966813,5.38554896 C44.7351713,5.38554896 45.1359724,5.46495049 45.4990969,5.62375594 C45.8622214,5.78256138 46.1773813,5.99660032 46.4445861,6.26587912 C46.7117908,6.53515793 46.9241812,6.85621628 47.0817635,7.22906384 C47.2393458,7.60191141 47.3318384,7.99546682 47.3592441,8.40974187 L47.3592441,8.40974187 L47.3592441,8.40974187 L47.3592441,8.40974187 Z M49.0446812,11.3925075 L47.3181358,11.3925075 C47.1674049,12.0967751 46.8556706,12.6215156 46.3829237,12.9667449 C45.9101768,13.3119741 45.3038365,13.4845861 44.5638848,13.4845861 C43.9883668,13.4845861 43.4882217,13.3879234 43.0634346,13.194595 C42.6386475,13.0012667 42.289231,12.7423486 42.0151748,12.4178332 C41.7411186,12.0933177 41.5424309,11.7204757 41.4191056,11.2992961 C41.2957803,10.8781164 41.2409699,10.4327774 41.2546727,9.96326563 L49.2091142,9.96326563 C49.2365198,9.31423466 49.1782837,8.63069109 49.0344042,7.9126143 C48.8905247,7.19453752 48.6301752,6.53170735 48.2533479,5.92410386 C47.8765207,5.31650043 47.3763756,4.81592558 46.7528977,4.42236427 C46.1294199,4.02880295 45.3449458,3.83202524 44.3994519,3.83202524 C43.6732029,3.83202524 43.005201,3.97011486 42.3954259,4.24629824 C41.7856508,4.52248162 41.2581006,4.90913255 40.8127593,5.40626263 C40.3674179,5.90339269 40.0214271,6.49027358 39.7747766,7.1669229 C39.528126,7.84357214 39.4048026,8.58925611 39.4048026,9.40399705 C39.4322082,10.2187381 39.552106,10.9713265 39.7644995,11.661785 C39.9768931,12.3522434 40.2954786,12.9460288 40.7202658,13.4431588 C41.1450529,13.9402889 41.6691775,14.3269398 42.2926553,14.6031232 C42.9161332,14.8793066 43.6526482,15.0173962 44.5022224,15.0173962 C45.7080697,15.0173962 46.7083598,14.713599 47.5031229,14.1059956 C48.2978858,13.4983922 48.8117335,12.5939051 49.0446812,11.3925075 L49.0446812,11.3925075 L49.0446812,11.3925075 L49.0446812,11.3925075 Z M53.1221033,4.08058904 L53.1221033,0.869973299 L51.3750037,0.869973299 L51.3750037,4.08058904 L49.5662419,4.08058904 L49.5662419,5.6341128 L51.3750037,5.6341128 L51.3750037,12.4489036 C51.3750037,12.9460337 51.4229629,13.3464936 51.5188825,13.6502953 C51.6148022,13.954097 51.7621052,14.1888494 51.9607959,14.3545594 C52.1594867,14.5202694 52.4198362,14.6341934 52.7418522,14.6963347 C53.0638682,14.7584759 53.4509668,14.7895461 53.9031596,14.7895461 L55.2391768,14.7895461 L55.2391768,13.2360223 L54.4375665,13.2360223 C54.1635103,13.2360223 53.940843,13.2256656 53.7695578,13.2049518 C53.5982727,13.1842381 53.4646723,13.139359 53.3687526,13.0703132 C53.272833,13.0012673 53.2077456,12.9046045 53.1734885,12.780322 C53.1392315,12.6560395 53.1221033,12.490332 53.1221033,12.2831944 L53.1221033,5.6341128 L55.2391768,5.6341128 L55.2391768,4.08058904 L53.1221033,4.08058904 L53.1221033,4.08058904 L53.1221033,4.08058904 Z M63.8796118,7.85047336 L66.7366334,7.85047336 C66.695525,7.16001491 66.5310937,6.56277728 66.2433347,6.05874262 C65.9555757,5.55470795 65.5821798,5.1335346 65.1231356,4.79520996 C64.6640915,4.45688532 64.1433925,4.20487177 63.5610231,4.03916174 C62.9786536,3.87345171 62.3723134,3.79059794 61.7419841,3.79059794 C60.8787071,3.79059794 60.1113612,3.93559204 59.4399236,4.22558459 C58.7684859,4.51557714 58.1998278,4.91948928 57.7339322,5.4373331 C57.2680367,5.95517697 56.9151946,6.56967573 56.6753954,7.28084798 C56.4355963,7.99202017 56.3156985,8.76186981 56.3156985,9.59041996 C56.3156985,10.3913517 56.4458732,11.1266789 56.7062266,11.7964236 C56.96658,12.4661684 57.329699,13.0426925 57.7955946,13.5260134 C58.2614901,14.0093344 58.8267225,14.3856285 59.4913089,14.6549073 C60.1558951,14.9241861 60.8855589,15.0588235 61.6803218,15.0588235 C63.0917112,15.0588235 64.2495813,14.6859815 65.1539667,13.9402865 C66.0583523,13.1945913 66.6064564,12.1105878 66.7982957,10.6882434 L63.9823824,10.6882434 C63.8864627,11.3510835 63.6500928,11.8792763 63.2732655,12.2728376 C62.8964382,12.6663989 62.358611,12.8631766 61.6597677,12.8631766 C61.207575,12.8631766 60.823902,12.7596094 60.5087374,12.5524719 C60.1935728,12.3453343 59.9435003,12.0795119 59.7585123,11.7549964 C59.5735244,11.4304809 59.439924,11.0679956 59.3577071,10.6675297 C59.2754902,10.2670639 59.2343824,9.87350844 59.2343824,9.48685167 C59.2343824,9.08638576 59.2754902,8.68247361 59.3577071,8.27510317 C59.439924,7.86773267 59.5803756,7.49489072 59.7790664,7.15656603 C59.9777572,6.8182414 60.234681,6.54206219 60.5498456,6.32802007 C60.8650103,6.11397795 61.2555345,6.00695848 61.72143,6.00695848 C62.9683858,6.00695848 63.6877724,6.6214573 63.8796118,7.85047336 L63.8796118,7.85047336 L63.8796118,7.85047336 L63.8796118,7.85047336 Z M68.1214667,0 L68.1214667,14.7895461 L71.0401508,14.7895461 L71.0401508,9.17614694 C71.0401508,8.08522259 71.2182847,7.30156402 71.5745574,6.82514763 C71.9308307,6.34873131 72.5063401,6.11052676 73.3011034,6.11052676 C73.9999465,6.11052676 74.486389,6.3280179 74.7604451,6.76300669 C75.0345011,7.19799553 75.1715274,7.8573735 75.1715274,8.74116026 L75.1715274,14.7895461 L78.0902115,14.7895461 L78.0902115,8.20260536 C78.0902115,7.53976525 78.0319749,6.93562316 77.915501,6.39016101 C77.7990272,5.8446988 77.5969139,5.38209858 77.3091551,5.00234646 C77.0213956,4.62259432 76.6274463,4.32570164 76.1272936,4.11165951 C75.6271409,3.8976174 74.9865445,3.79059794 74.205484,3.79059794 C73.6573719,3.79059794 73.0955646,3.9321398 72.520047,4.21522777 C71.9445287,4.49831573 71.471789,4.95055923 71.1018129,5.57197186 L71.0401508,5.57197186 L71.0401508,0 L68.1214667,0 L68.1214667,0 L68.1214667,0 Z M79.8655727,7.3740594 C79.906681,6.68360095 80.0779639,6.11052899 80.3794255,5.65482641 C80.680887,5.19912389 81.0645605,4.83318637 81.5304559,4.55700299 C81.9963514,4.28081961 82.5204759,4.0840419 83.1028453,3.96666397 C83.6852146,3.84928603 84.2710013,3.79059794 84.8602216,3.79059794 C85.3946316,3.79059794 85.9358845,3.82857259 86.4839966,3.90452302 C87.0321093,3.98047345 87.5322545,4.12891979 87.9844472,4.34986649 C88.4366399,4.57081319 88.8066099,4.8780626 89.0943694,5.27162394 C89.3821282,5.66518524 89.5260055,6.18647353 89.5260055,6.8355045 L89.5260055,12.4074763 C89.5260055,12.8907972 89.5534104,13.3533974 89.6082221,13.7952909 C89.6630332,14.2371843 89.7589512,14.5685994 89.8959796,14.7895461 L86.9361872,14.7895461 C86.8813761,14.623836 86.8368423,14.4546762 86.8025857,14.2820616 C86.7683285,14.109447 86.7443491,13.9333828 86.7306464,13.7538635 C86.2647509,14.2371845 85.7166463,14.575504 85.086317,14.7688324 C84.4559876,14.9621608 83.8119657,15.0588235 83.1542308,15.0588235 C82.6472264,15.0588235 82.1744867,14.9966832 81.7359967,14.8724007 C81.2975068,14.7481181 80.9138341,14.5547927 80.5849663,14.2924184 C80.2560992,14.0300442 79.9991755,13.6986292 79.8141872,13.2981633 C79.6291994,12.8976974 79.536707,12.4212882 79.536707,11.8689215 C79.536707,11.261318 79.6429022,10.7607431 79.8552955,10.3671818 C80.0676894,9.97362047 80.3417413,9.65946659 80.6774602,9.42471072 C81.013179,9.18995486 81.3968517,9.01389059 81.8284906,8.89651262 C82.2601288,8.77913473 82.6951864,8.68592426 83.1336763,8.61687837 C83.5721662,8.54783255 84.0037983,8.49259668 84.4285855,8.45116921 C84.8533726,8.40974166 85.2301943,8.34760133 85.5590621,8.2647463 C85.8879292,8.18189135 86.1482784,8.06106288 86.3401178,7.90225744 C86.5319573,7.74345199 86.6210242,7.51215192 86.6073215,7.20835017 C86.6073215,6.89073929 86.5559366,6.63872574 86.4531655,6.45230196 C86.3503944,6.26587818 86.2133688,6.1208841 86.0420831,6.01731534 C85.8707982,5.91374652 85.6721105,5.84470171 85.4460145,5.81017884 C85.2199178,5.7756559 84.9766969,5.75839469 84.7163429,5.75839469 C84.1408253,5.75839469 83.6886394,5.88267537 83.3597716,6.13124037 C83.0309045,6.37980543 82.8390678,6.79407432 82.7842568,7.3740594 L79.8655727,7.3740594 L79.8655727,7.3740594 L79.8655727,7.3740594 Z M86.6073215,9.54899261 C86.4839966,9.65946598 86.3298419,9.74577198 86.1448542,9.80791326 C85.9598659,9.87005448 85.7611781,9.92183815 85.5487849,9.96326563 C85.336391,10.0046931 85.1137239,10.0392155 84.8807761,10.0668338 C84.6478284,10.0944522 84.4148841,10.1289746 84.1819363,10.1704021 C83.9626914,10.2118296 83.7468753,10.2670655 83.5344814,10.3361113 C83.3220882,10.4051572 83.1371032,10.4983677 82.9795204,10.6157456 C82.8219382,10.7331235 82.6951891,10.8815699 82.5992697,11.0610891 C82.5033497,11.2406083 82.455391,11.4684562 82.455391,11.7446395 C82.455391,12.0070137 82.5033497,12.2279571 82.5992697,12.4074763 C82.6951891,12.5869955 82.8253637,12.7285373 82.9897976,12.8321062 C83.1542315,12.9356749 83.3460682,13.0081719 83.5653132,13.0495995 C83.7845581,13.091027 84.0106507,13.1117404 84.2435985,13.1117404 C84.8191167,13.1117404 85.2644516,13.0150777 85.5796159,12.8217493 C85.8947803,12.628421 86.1277246,12.3971208 86.2784557,12.127842 C86.4291868,11.8585632 86.5216793,11.5858362 86.5559359,11.3096529 C86.5901932,11.0334695 86.6073215,10.8125261 86.6073215,10.6468161 L86.6073215,9.54899261 L86.6073215,9.54899261 L86.6073215,9.54899261 Z M95.1655397,4.08058904 L95.1655397,0.869973299 L92.2468564,0.869973299 L92.2468564,4.08058904 L90.4792027,4.08058904 L90.4792027,6.04838582 L92.2468564,6.04838582 L92.2468564,12.366049 C92.2468564,12.9046066 92.3359233,13.3395889 92.5140593,13.671009 C92.692196,14.002429 92.9354175,14.2578948 93.2437308,14.437414 C93.5520434,14.6169332 93.9083113,14.7377617 94.3125447,14.7999029 C94.7167773,14.8620442 95.1449839,14.8931143 95.5971766,14.8931143 C95.8849354,14.8931143 96.1795412,14.8862098 96.4810034,14.8724007 C96.782465,14.8585915 97.0565169,14.8309736 97.3031674,14.7895461 L97.3031674,12.5110446 C97.1661397,12.5386629 97.0222624,12.5593763 96.8715313,12.5731855 C96.7208001,12.5869947 96.5632207,12.5938992 96.3987868,12.5938992 C95.9054858,12.5938992 95.5766228,12.5110454 95.4121896,12.3453353 C95.2477557,12.1796254 95.1655397,11.8482103 95.1655397,11.3510802 L95.1655397,6.04838582 L97.3031674,6.04838582 L97.3031674,4.08058904 L95.1655397,4.08058904 L95.1655397,4.08058904 Z" id="Combined-Shape-Copy-10"></path>
            </g>
        </g>
    </g>
</svg>